<svg width="58" height="58" viewBox="0 0 58 58" fill="none" xmlns="http://www.w3.org/2000/svg">
<rect x="3.75415" y="3.99242" width="48.9199" height="48.9199" rx="10" fill="white"/>
<path d="M16.3838 33.2188V14.5888H20.5008V33.2188H16.3838Z" fill="black"/>
<path d="M21.2087 33.2188V14.5888H25.9237C27.5491 14.5888 28.8141 14.7958 29.7187 15.2098C30.6234 15.6084 31.2597 16.2448 31.6277 17.1188C31.9957 17.9774 32.1797 19.0968 32.1797 20.4768V27.2388C32.1797 28.6341 31.9957 29.7764 31.6277 30.6658C31.2597 31.5398 30.6234 32.1838 29.7187 32.5978C28.8294 33.0118 27.5797 33.2188 25.9697 33.2188H21.2087ZM25.3257 30.3668H25.9697C26.5984 30.3668 27.0507 30.2748 27.3267 30.0908C27.6027 29.9068 27.7714 29.6308 27.8327 29.2628C27.9094 28.8948 27.9477 28.4348 27.9477 27.8828V19.7638C27.9477 19.2118 27.9017 18.7671 27.8097 18.4298C27.7331 18.0924 27.5567 17.8471 27.2807 17.6938C27.0047 17.5404 26.5601 17.4638 25.9467 17.4638H25.3257V30.3668Z" fill="black"/>
<path d="M32.6153 33.2188V14.5888H40.9873V17.3948H36.7323V22.0178L36.7381 21.9542V24.8062L36.7323 24.8698V30.4358H41.0333V33.2188H32.6153Z" fill="black"/>
<rect x="37.8161" y="22.0069" width="3.21722" height="2.86557" fill="black"/>
<path d="M21.493 42.104C21.493 42.272 21.513 42.392 21.553 42.464C21.601 42.536 21.689 42.572 21.817 42.572C21.857 42.572 21.905 42.572 21.961 42.572C22.017 42.572 22.081 42.564 22.153 42.548V43.496C22.105 43.512 22.041 43.528 21.961 43.544C21.889 43.568 21.813 43.588 21.733 43.604C21.653 43.62 21.573 43.632 21.493 43.64C21.413 43.648 21.345 43.652 21.289 43.652C21.009 43.652 20.777 43.596 20.593 43.484C20.409 43.372 20.289 43.176 20.233 42.896C19.961 43.16 19.625 43.352 19.225 43.472C18.833 43.592 18.453 43.652 18.085 43.652C17.805 43.652 17.537 43.612 17.281 43.532C17.025 43.46 16.797 43.352 16.597 43.208C16.405 43.056 16.249 42.868 16.129 42.644C16.017 42.412 15.961 42.144 15.961 41.84C15.961 41.456 16.029 41.144 16.165 40.904C16.309 40.664 16.493 40.476 16.717 40.34C16.949 40.204 17.205 40.108 17.485 40.052C17.773 39.988 18.061 39.94 18.349 39.908C18.597 39.86 18.833 39.828 19.057 39.812C19.281 39.788 19.477 39.752 19.645 39.704C19.821 39.656 19.957 39.584 20.053 39.488C20.157 39.384 20.209 39.232 20.209 39.032C20.209 38.856 20.165 38.712 20.077 38.6C19.997 38.488 19.893 38.404 19.765 38.348C19.645 38.284 19.509 38.244 19.357 38.228C19.205 38.204 19.061 38.192 18.925 38.192C18.541 38.192 18.225 38.272 17.977 38.432C17.729 38.592 17.589 38.84 17.557 39.176H16.189C16.213 38.776 16.309 38.444 16.477 38.18C16.645 37.916 16.857 37.704 17.113 37.544C17.377 37.384 17.673 37.272 18.001 37.208C18.329 37.144 18.665 37.112 19.009 37.112C19.313 37.112 19.613 37.144 19.909 37.208C20.205 37.272 20.469 37.376 20.701 37.52C20.941 37.664 21.133 37.852 21.277 38.084C21.421 38.308 21.493 38.584 21.493 38.912V42.104ZM20.125 40.376C19.917 40.512 19.661 40.596 19.357 40.628C19.053 40.652 18.749 40.692 18.445 40.748C18.301 40.772 18.161 40.808 18.025 40.856C17.889 40.896 17.769 40.956 17.665 41.036C17.561 41.108 17.477 41.208 17.413 41.336C17.357 41.456 17.329 41.604 17.329 41.78C17.329 41.932 17.373 42.06 17.461 42.164C17.549 42.268 17.653 42.352 17.773 42.416C17.901 42.472 18.037 42.512 18.181 42.536C18.333 42.56 18.469 42.572 18.589 42.572C18.741 42.572 18.905 42.552 19.081 42.512C19.257 42.472 19.421 42.404 19.573 42.308C19.733 42.212 19.865 42.092 19.969 41.948C20.073 41.796 20.125 41.612 20.125 41.396V40.376Z" fill="black"/>
<path d="M22.413 43.484L22.281 42.728L22.953 42.56V35.708H22.329L22.197 34.892L23.985 34.64L24.405 35.084V42.536L25.185 42.728V43.484H22.413Z" fill="black"/>
<path d="M27.3111 37.064C26.9911 37.064 26.7271 36.968 26.5191 36.776C26.3191 36.576 26.2191 36.328 26.2191 36.032C26.2191 35.712 26.3391 35.436 26.5791 35.204C26.8191 34.972 27.1111 34.856 27.4551 34.856C27.7751 34.856 28.0351 34.956 28.2351 35.156C28.4431 35.356 28.5471 35.604 28.5471 35.9C28.5471 36.22 28.4271 36.496 28.1871 36.728C27.9471 36.952 27.6551 37.064 27.3111 37.064ZM26.4711 43.532C26.1591 43.532 25.8791 43.424 25.6311 43.208C25.3831 42.984 25.2591 42.628 25.2591 42.14C25.2591 41.86 25.2951 41.6 25.3671 41.36C25.4471 41.112 25.5351 40.872 25.6311 40.64C25.7351 40.408 25.8231 40.184 25.8951 39.968C25.9751 39.744 26.0151 39.524 26.0151 39.308C26.0151 39.116 25.9831 38.98 25.9191 38.9C25.8551 38.812 25.7791 38.768 25.6911 38.768C25.5551 38.768 25.4231 38.856 25.2951 39.032L25.2111 38.984C25.2431 38.664 25.3431 38.392 25.5111 38.168C25.6871 37.936 25.8991 37.756 26.1471 37.628C26.4031 37.5 26.6551 37.436 26.9031 37.436C27.2071 37.436 27.4711 37.536 27.6951 37.736C27.9191 37.928 28.0311 38.244 28.0311 38.684C28.0311 38.948 27.9911 39.228 27.9111 39.524C27.8391 39.812 27.7511 40.1 27.6471 40.388C27.5511 40.676 27.4631 40.944 27.3831 41.192C27.3111 41.44 27.2751 41.652 27.2751 41.828C27.2751 41.98 27.3031 42.088 27.3591 42.152C27.4231 42.216 27.4911 42.248 27.5631 42.248C27.6351 42.248 27.7031 42.228 27.7671 42.188C27.8391 42.14 27.8911 42.088 27.9231 42.032L28.0071 42.056C28.0071 42.352 27.9271 42.612 27.7671 42.836C27.6151 43.052 27.4231 43.224 27.1911 43.352C26.9591 43.472 26.7191 43.532 26.4711 43.532Z" fill="black"/>
<path d="M28.327 37.8173H29.1365V37.0078H32.3746V37.8173H33.9937V38.6269H33.1841V39.4364H32.3746V38.6269H29.1365V39.4364H28.327V37.8173ZM33.9937 37.0078H34.8032V37.8173H33.9937V37.0078ZM31.5651 39.4364H32.3746V40.2459H31.5651V39.4364ZM30.7556 40.2459H31.5651V41.0554H30.7556V40.2459ZM29.1365 41.865H29.9461V41.0554H30.7556V41.865H33.9937V41.0554H34.8032V42.6745H33.9937V43.484H30.7556V42.6745H29.1365V41.865ZM28.327 42.6745H29.1365V43.484H28.327V42.6745Z" fill="black"/>
<path d="M38.1579 37.7145C38.5225 37.7145 38.7868 37.833 38.9508 38.0699C39.1149 38.3024 39.1969 38.594 39.1969 38.9449C39.1969 39.0771 39.1741 39.2275 39.1286 39.3961H36.4626C36.6038 38.8264 36.8317 38.4049 37.1462 38.1315C37.4652 37.8535 37.8024 37.7145 38.1579 37.7145ZM36.3942 39.861H40.1198C40.1927 39.6331 40.2292 39.3984 40.2292 39.1569C40.2292 38.6236 40.0765 38.177 39.7712 37.817C39.4704 37.4524 38.9896 37.2701 38.3288 37.2701C37.4674 37.2701 36.7428 37.5823 36.1549 38.2067C35.5671 38.831 35.2731 39.624 35.2731 40.5856C35.2731 41.611 35.5534 42.3834 36.1139 42.9029C36.6745 43.4225 37.333 43.6822 38.0895 43.6822C38.6501 43.6822 39.1696 43.5319 39.6481 43.2311C40.1312 42.9257 40.4844 42.4677 40.7077 41.857C40.6439 41.7841 40.555 41.734 40.4411 41.7067C40.4228 41.734 40.3682 41.8092 40.277 41.9322C40.1904 42.0507 40.1266 42.1373 40.0856 42.192C40.0446 42.2421 39.9694 42.3173 39.86 42.4176C39.7552 42.5133 39.6527 42.5839 39.5524 42.6295C39.4567 42.6751 39.3337 42.7207 39.1833 42.7662C39.0329 42.8072 38.8688 42.8278 38.6911 42.8278C37.9893 42.8278 37.431 42.6204 37.0163 42.2057C36.6016 41.7864 36.3851 41.2236 36.3669 40.5172C36.3669 40.3577 36.376 40.1389 36.3942 39.861ZM40.3317 41.3854C40.6188 41.4492 40.8512 41.5927 41.029 41.816C40.7692 42.527 40.3682 43.0625 39.8258 43.4225C39.2835 43.7825 38.7047 43.9625 38.0895 43.9625C37.251 43.9625 36.5241 43.68 35.9088 43.1149C35.2982 42.5498 34.9928 41.7067 34.9928 40.5856C34.9928 39.5693 35.305 38.7171 35.9294 38.0289C36.5583 37.3362 37.4469 36.9899 38.5954 36.9899C40.3317 36.9899 41.1999 37.7122 41.1999 39.1569C41.1999 39.4394 41.1338 39.7675 41.0016 40.1412H37.3307V40.5856C37.3535 41.137 37.5039 41.5859 37.7819 41.9322C38.0599 42.274 38.4427 42.4746 38.9303 42.5338C39.2174 42.5065 39.4544 42.4085 39.6413 42.2399C39.8281 42.0712 40.0583 41.7864 40.3317 41.3854ZM38.9167 38.9449C38.9167 38.4436 38.748 38.1406 38.4108 38.0358C38.0098 38.1588 37.7113 38.5188 37.5153 39.1158H38.903C38.903 39.0976 38.9053 39.0703 38.9098 39.0338C38.9144 38.9973 38.9167 38.9677 38.9167 38.9449Z" fill="black"/>
</svg>
